<svg viewBox="0 0 191 198" fill="none" xmlns="http://www.w3.org/2000/svg">
<mask id="mask0_135_820" style="mask-type:alpha" maskUnits="userSpaceOnUse" x="0" y="0" width="191" height="198">
<path d="M178.484 166.484C180.409 164.559 181.936 162.274 182.978 159.759C184.02 157.244 184.556 154.548 184.556 151.825C184.556 149.103 184.02 146.407 182.978 143.892C181.936 141.377 180.409 139.092 178.484 137.167C176.559 135.242 174.274 133.715 171.759 132.673C169.244 131.631 166.548 131.095 163.825 131.095C161.103 131.095 158.407 131.631 155.892 132.673C153.377 133.715 151.092 135.242 149.167 137.167L156.248 144.248C157.243 143.253 158.424 142.464 159.725 141.925C161.025 141.387 162.418 141.109 163.825 141.109C165.233 141.109 166.626 141.387 167.926 141.925C169.226 142.464 170.408 143.253 171.403 144.248C172.398 145.243 173.187 146.424 173.726 147.725C174.264 149.025 174.541 150.418 174.541 151.825C174.541 153.233 174.264 154.626 173.726 155.926C173.187 157.226 172.398 158.408 171.403 159.403L178.484 166.484Z" fill="#0C2461"/>
<path d="M125.659 79.9767C127.584 81.9017 129.869 83.4287 132.384 84.4705C134.9 85.5124 137.595 86.0486 140.318 86.0486C143.04 86.0486 145.736 85.5124 148.251 84.4705C150.766 83.4287 153.052 81.9017 154.977 79.9767C156.902 78.0516 158.429 75.7663 159.471 73.2511C160.512 70.7359 161.049 68.0402 161.049 65.3178C161.049 62.5954 160.512 59.8996 159.471 57.3844C158.429 54.8692 156.902 52.5839 154.977 50.6589L147.895 57.7404C148.89 58.7355 149.68 59.9168 150.218 61.2169C150.757 62.5171 151.034 63.9105 151.034 65.3178C151.034 66.725 150.757 68.1185 150.218 69.4186C149.68 70.7187 148.89 71.9 147.895 72.8951C146.9 73.8902 145.719 74.6795 144.419 75.2181C143.118 75.7566 141.725 76.0338 140.318 76.0338C138.911 76.0338 137.517 75.7566 136.217 75.2181C134.917 74.6795 133.736 73.8902 132.74 72.8951L125.659 79.9767Z" fill="#0C2461"/>
<path d="M120.319 31.928C133.542 34.5902 145.665 41.1522 155.125 50.7679L147.982 57.7947C139.926 49.606 129.603 44.0179 118.341 41.7507C107.08 39.4835 95.3984 40.6412 84.8014 45.0746C74.2044 49.508 65.1782 57.0138 58.8863 66.6244C52.5945 76.235 49.3254 87.5099 49.5006 98.9956C49.5418 101.694 49.7726 104.374 50.1869 107.019C46.5953 107.188 43.2953 108.472 40.625 110.532C39.9257 106.793 39.5405 102.986 39.482 99.1484C39.2763 85.6613 43.115 72.4216 50.5032 61.1362C57.8915 49.8508 68.4906 41.0371 80.9343 35.8312C93.3779 30.6252 107.096 29.2657 120.319 31.928Z" fill="#0C2461"/>
<path d="M54.5384 140.631C61.9885 149.824 71.744 156.92 82.8461 161.172C95.4428 165.996 109.196 166.936 122.332 163.872C135.468 160.808 147.385 153.879 156.547 143.979L149.193 137.174C141.391 145.604 131.242 151.505 120.055 154.114C108.869 156.724 97.1568 155.923 86.4295 151.815C77.5047 148.397 69.6018 142.82 63.4075 135.621C61.0747 138.111 58.0011 139.898 54.5384 140.631Z" fill="#0C2461"/>
<path d="M68 124C68 133.389 60.3888 141 51 141C41.6112 141 34 133.389 34 124C34 114.611 41.6112 107 51 107C60.3888 107 68 114.611 68 124ZM43.5498 124C43.5498 128.115 46.8854 131.45 51 131.45C55.1146 131.45 58.4502 128.115 58.4502 124C58.4502 119.885 55.1146 116.55 51 116.55C46.8854 116.55 43.5498 119.885 43.5498 124Z" fill="#0C2461"/>
<path d="M164.279 19.0518C149.091 8.07511 131.085 1.64842 112.367 0.533182C93.3724 -0.598542 74.456 3.78767 57.8979 13.1631C41.3398 22.5385 27.8468 36.503 19.0453 53.3732C18.4199 54.5719 17.8201 55.7817 17.246 57.0017C20.8139 57.0523 24.1159 58.202 26.8287 60.1275C27.1775 59.4127 27.5362 58.7019 27.9048 57.9953C35.8147 42.8342 47.9408 30.2844 62.8215 21.8587C77.7022 13.4331 94.7023 9.49118 111.772 10.5083C128.467 11.503 144.532 17.1993 158.116 26.9283C159.342 23.7243 161.509 20.986 164.279 19.0518Z" fill="#0C2461"/>
<path d="M8.29263 108.244C7.67674 101.7 7.71909 95.1434 8.40113 88.668C10.9238 90.1501 13.8627 91 17 91C17.4092 91 17.815 90.9855 18.2169 90.9571C17.7236 96.3719 17.7273 101.845 18.2414 107.307C19.8439 124.332 26.3364 140.531 36.9363 153.95C47.5362 167.369 61.7911 177.435 77.9826 182.936C94.1741 188.438 111.611 189.138 128.192 184.954C144.772 180.769 159.789 171.879 171.431 159.353L178.75 166.157C165.796 180.094 149.087 189.987 130.637 194.643C112.187 199.299 92.7847 198.519 74.768 192.398C56.7513 186.277 40.8896 175.075 29.0948 160.144C17.3001 145.212 10.0757 127.188 8.29263 108.244Z" fill="#0C2461"/>
<path d="M34 74C34 83.3888 26.3888 91 17 91C7.61115 91 0 83.3888 0 74C0 64.6111 7.61116 57 17 57C26.3888 57 34 64.6111 34 74ZM9.54985 74C9.54985 78.1146 12.8854 81.4501 17 81.4501C21.1146 81.4501 24.4502 78.1146 24.4502 74C24.4502 69.8854 21.1146 66.5498 17 66.5498C12.8854 66.5498 9.54985 69.8854 9.54985 74Z" fill="#0C2461"/>
<path d="M147 121C147 130.389 139.389 138 130 138C120.611 138 113 130.389 113 121C113 111.611 120.611 104 130 104C139.389 104 147 111.611 147 121ZM122.55 121C122.55 125.115 125.885 128.45 130 128.45C134.115 128.45 137.45 125.115 137.45 121C137.45 116.885 134.115 113.55 130 113.55C125.885 113.55 122.55 116.885 122.55 121Z" fill="#0C2461"/>
<path d="M191 33C191 42.3888 183.389 50 174 50C164.611 50 157 42.3888 157 33C157 23.6111 164.611 16 174 16C183.389 16 191 23.6111 191 33ZM166.55 33C166.55 37.1146 169.885 40.4501 174 40.4501C178.115 40.4501 181.45 37.1146 181.45 33C181.45 28.8854 178.115 25.5498 174 25.5498C169.885 25.5498 166.55 28.8854 166.55 33Z" fill="#0C2461"/>
<path d="M116.275 63.4326C122.529 65.0585 128.231 68.3372 132.781 72.925L125.674 79.9753C122.388 76.6629 118.272 74.2957 113.756 73.1218C109.241 71.9479 104.493 72.0106 100.01 73.3033C95.5269 74.5961 91.4745 77.0713 88.2775 80.4693C85.0805 83.8672 82.8567 88.0629 81.8393 92.6161C80.822 97.1694 81.0485 101.913 82.4952 106.348C83.9419 110.784 86.5555 114.748 90.0618 117.826C93.5681 120.904 97.8379 122.982 102.424 123.841C106.004 124.512 109.673 124.422 113.196 123.589C113.734 127.11 115.352 130.275 117.702 132.737C112.163 134.423 106.289 134.751 100.579 133.681C94.2277 132.49 88.3138 129.613 83.4574 125.35C78.601 121.087 74.9811 115.596 72.9774 109.452C70.9737 103.309 70.6599 96.7395 72.069 90.4331C73.4781 84.1266 76.5581 78.3155 80.9861 73.6091C85.4141 68.9028 91.0268 65.4746 97.2358 63.6841C103.445 61.8935 110.021 61.8067 116.275 63.4326Z" fill="#0C2461"/>
</mask>
<g mask="url(#mask0_135_820)">
<rect width="198" height="198" fill="url(#paint0_linear_135_820)"/>
</g>
<defs>
<linearGradient id="paint0_linear_135_820" x1="99" y1="0" x2="99" y2="198" gradientUnits="userSpaceOnUse">
<stop stop-color="#3992FD"/>
<stop offset="1" stop-color="#455BEF"/>
</linearGradient>
</defs>
</svg>
