<?xml version="1.0" standalone="no"?>
<!DOCTYPE svg PUBLIC "-//W3C//DTD SVG 1.0//EN" "http://www.w3.org/TR/2001/REC-SVG-20010904/DTD/svg10.dtd">
<svg xmlns="http://www.w3.org/2000/svg" xmlns:xlink="http://www.w3.org/1999/xlink" id="body_1" width="57" height="53">

<g transform="matrix(0.79104483 0 0 0.79104483 0.022387547 -0)">
    <path d="M72 26C 72 27.380714 71.51185 28.559225 70.53554 29.535534C 69.55923 30.511847 68.380714 31.000002 67 31C 65.61929 31.000002 64.44078 30.511847 63.464466 29.535534C 62.48816 28.559225 62.000004 27.380714 62 26C 62.000004 24.61929 62.48816 23.440777 63.464466 22.464466C 64.44078 21.488155 65.61929 21 67 21C 68.380714 21 69.55923 21.488155 70.53554 22.464466C 71.51185 23.440777 72 24.61929 72 26C 72 26.058186 71.998985 26.11635 71.996956 26.174498" stroke="none" fill="#637EDC" fill-rule="nonzero" fill-opacity="0.627451" />
    <path d="M58 52C 58 53.65686 57.414215 55.07107 56.24264 56.24264C 55.07107 57.414215 53.65686 58 52 58C 50.343147 58 48.928932 57.414215 47.75736 56.24264C 46.58579 55.07107 46 53.65686 46 52C 46 50.343147 46.58579 48.928932 47.75736 47.75736C 48.928932 46.58579 50.343147 46 52 46C 53.65686 46 55.07107 46.58579 56.24264 47.75736C 57.414215 48.928932 58 50.343147 58 52C 58 52.069824 57.998783 52.13962 57.996346 52.209396" stroke="none" fill="#637EDC" fill-rule="nonzero" fill-opacity="0.7882353" />
    <path d="M42 6C 42 7.656854 41.414215 9.071068 40.24264 10.2426405C 39.07107 11.414213 37.656857 12 36 12C 34.343147 12 32.928932 11.414213 31.757359 10.2426405C 30.585787 9.071068 30 7.656854 30 6C 30 4.343146 30.585787 2.9289324 31.757359 1.7573595C 32.928932 0.5857865 34.343147 0 36 0C 37.656857 0 39.07107 0.5857865 40.24264 1.7573595C 41.414215 2.9289324 42 4.343146 42 6C 42 6.0698204 41.998783 6.1396194 41.996346 6.209397" stroke="none" fill="#637EDC" fill-rule="nonzero" fill-opacity="0.627451" />
    <path d="M59 34C 59.000004 35.933 58.316586 37.582912 56.94975 38.94975C 55.582912 40.31658 53.933 41 52 41C 50.06701 41 48.41709 40.31658 47.05025 38.94975C 45.68342 37.582912 45 35.933 45 34C 45 32.067005 45.68342 30.41709 47.05025 29.050253C 48.41709 27.683418 50.06701 27 52 27C 53.933 27 55.582912 27.683418 56.94975 29.050253C 58.316586 30.41709 59.000004 32.067005 59 34C 59.000004 34.08146 58.99858 34.162888 58.995735 34.244297" stroke="none" fill="#637EDC" fill-rule="nonzero" />
    <path d="M11 43C 11 44.380714 10.511845 45.559223 9.535534 46.535534C 8.559223 47.511845 7.380712 48 6 48C 4.6192884 48 3.4407768 47.511845 2.464466 46.535534C 1.4881554 45.559223 1 44.380714 1 43C 1 41.61929 1.4881554 40.440777 2.464466 39.464466C 3.4407768 38.488155 4.6192884 38 6 38C 7.380712 38 8.559223 38.488155 9.535534 39.464466C 10.511845 40.440777 11 41.61929 11 43C 11 43.058186 10.998985 43.11635 10.996954 43.174496" stroke="none" fill="#637EDC" fill-rule="nonzero" fill-opacity="0.627451" />
    <path d="M43 61C 43 62.65686 42.414215 64.071075 41.24264 65.24264C 40.071068 66.414215 38.656857 67 37 67C 35.343147 67 33.928932 66.414215 32.75736 65.24264C 31.585789 64.071075 31.000002 62.65686 31 61C 31.000002 59.343147 31.585789 57.928932 32.75736 56.75736C 33.928932 55.58579 35.343147 55 37 55C 38.656857 55 40.071068 55.58579 41.24264 56.75736C 42.414215 57.928932 43 59.343147 43 61C 43 61.069824 42.998783 61.13962 42.996346 61.209396" stroke="none" fill="#637EDC" fill-rule="nonzero" fill-opacity="0.627451" />
    <path d="M10 27C 10 28.380713 9.511845 29.559223 8.535534 30.535534C 7.5592237 31.511845 6.3807125 32 5 32C 3.6192882 32 2.4407768 31.511845 1.4644661 30.535534C 0.48815536 29.559223 0 28.380713 0 27C 0 25.61929 0.48815536 24.440779 1.4644661 23.464466C 2.4407768 22.488155 3.6192882 22 5 22C 6.3807125 22 7.5592237 22.488155 8.535534 23.464466C 9.511845 24.440779 10 25.61929 10 27C 10 27.058184 9.998985 27.11635 9.996954 27.174498" stroke="none" fill="#637EDC" fill-rule="nonzero" fill-opacity="0.627451" />
    <path d="M26 17C 26 18.656855 25.414215 20.071068 24.242641 21.242641C 23.071068 22.414215 21.656855 23 20 23C 18.343147 23 16.928932 22.414215 15.7573595 21.242641C 14.585787 20.071068 14.000001 18.656855 14 17C 14.000001 15.343146 14.585787 13.928932 15.7573595 12.7573595C 16.928932 11.585787 18.343147 11 20 11C 21.656855 11 23.071068 11.585787 24.242641 12.7573595C 25.414215 13.928932 26 15.343146 26 17C 26 17.06982 25.998783 17.13962 25.996346 17.209396" stroke="none" fill="#637EDC" fill-rule="nonzero" fill-opacity="0.7882353" />
    <path d="M72 42C 72 43.380714 71.51185 44.559223 70.53554 45.535534C 69.55923 46.511845 68.380714 47 67 47C 65.61929 47 64.44078 46.511845 63.464466 45.535534C 62.48816 44.559223 62.000004 43.380714 62 42C 62.000004 40.61929 62.48816 39.44078 63.464466 38.464466C 64.44078 37.48816 65.61929 37 67 37C 68.380714 37 69.55923 37.48816 70.53554 38.464466C 71.51185 39.44078 72 40.61929 72 42C 72 42.058186 71.998985 42.116352 71.996956 42.174496" stroke="none" fill="#637EDC" fill-rule="nonzero" fill-opacity="0.627451" />
    <path d="M26 52C 26 53.65686 25.414215 55.07107 24.242641 56.24264C 23.071068 57.414215 21.656855 58 20 58C 18.343147 58 16.928932 57.414215 15.7573595 56.24264C 14.585787 55.07107 14.000001 53.65686 14 52C 14.000001 50.343147 14.585787 48.928932 15.7573595 47.75736C 16.928932 46.58579 18.343147 46 20 46C 21.656855 46 23.071068 46.58579 24.242641 47.75736C 25.414215 48.928932 26 50.343147 26 52C 26 52.069824 25.998783 52.13962 25.996346 52.209396" stroke="none" fill="#637EDC" fill-rule="nonzero" fill-opacity="0.7882353" />
    <path d="M43 43C 43 44.933 42.316586 46.582912 40.94975 47.94975C 39.582912 49.316586 37.933 50.000004 36 50C 34.067005 50.000004 32.41709 49.316586 31.050253 47.94975C 29.683418 46.582912 29 44.933 29 43C 29 41.067005 29.683418 39.417088 31.050253 38.05025C 32.41709 36.68342 34.067005 36 36 36C 37.933 36 39.582912 36.68342 40.94975 38.05025C 42.316586 39.417088 43 41.067005 43 43C 43 43.08146 42.99858 43.162888 42.995735 43.244297" stroke="none" fill="#637EDC" fill-rule="nonzero" />
    <path d="M58 17C 58 18.656855 57.414215 20.071068 56.24264 21.242641C 55.07107 22.414215 53.65686 23 52 23C 50.343147 23 48.928932 22.414215 47.75736 21.242641C 46.58579 20.071068 46 18.656855 46 17C 46 15.343146 46.58579 13.928932 47.75736 12.7573595C 48.928932 11.585787 50.343147 11 52 11C 53.65686 11 55.07107 11.585787 56.24264 12.7573595C 57.414215 13.928932 58 15.343146 58 17C 58 17.06982 57.998783 17.13962 57.996346 17.209396" stroke="none" fill="#637EDC" fill-rule="nonzero" fill-opacity="0.7882353" />
    <path d="M27 34C 27 35.933 26.316582 37.582912 24.949747 38.94975C 23.582912 40.31658 21.932997 41 20 41C 18.067005 41 16.417088 40.31658 15.050253 38.94975C 13.683418 37.582912 13 35.933 13 34C 13 32.067005 13.683418 30.41709 15.050253 29.050253C 16.417088 27.683418 18.067005 27 20 27C 21.932997 27 23.582912 27.683418 24.949747 29.050253C 26.316582 30.41709 27 32.067005 27 34C 27 34.08146 26.998579 34.162888 26.995735 34.244297" stroke="none" fill="#637EDC" fill-rule="nonzero" />
    <path d="M43 24C 43 25.932997 42.316586 27.582912 40.94975 28.949747C 39.582912 30.316584 37.933 31.000002 36 31C 34.067005 31.000002 32.41709 30.316584 31.050253 28.949747C 29.683418 27.582912 29 25.932997 29 24C 29 22.067005 29.683418 20.417088 31.050253 19.050253C 32.41709 17.683418 34.067005 17 36 17C 37.933 17 39.582912 17.683418 40.94975 19.050253C 42.316586 20.417088 43 22.067005 43 24C 43 24.081457 42.99858 24.16289 42.995735 24.244297" stroke="none" fill="#637EDC" fill-rule="nonzero" />
</g>
</svg>